HIERARCHY
ROOT mixamorig:Hips
{
	OFFSET 0.00 0.00 0.00
	CHANNELS 6 Xposition Yposition Zposition Zrotation Yrotation Xrotation
	JOINT mixamorig:Spine
	{
		OFFSET	0.0000	10.1816	0.1315
		CHANNELS 3 Zrotation Yrotation Xrotation
		JOINT mixamorig:Spine1
		{
			OFFSET	0.0000	10.0835	-1.0008
			CHANNELS 3 Zrotation Yrotation Xrotation
			JOINT mixamorig:Spine2
			{
				OFFSET	0.0000	9.1000	-1.3734
				CHANNELS 3 Zrotation Yrotation Xrotation
				JOINT mixamorig:Neck
				{
					OFFSET	0.0000	16.6717	-2.5162
					CHANNELS 3 Zrotation Yrotation Xrotation
					JOINT mixamorig:Head
					{
						OFFSET	-0.0000	9.6179	1.6850
						CHANNELS 3 Zrotation Yrotation Xrotation
						JOINT mixamorig:HeadTop_End
						{
							OFFSET	0.0000	17.8152	2.5850
							CHANNELS 3 Zrotation Yrotation Xrotation
							End Site
							{
								OFFSET 0.0000 0.0000 0.0000
							}
						}
						JOINT mixamorig:LeftEye
						{
							OFFSET	3.0675	6.4095	9.2836
							CHANNELS 3 Zrotation Yrotation Xrotation
							End Site
							{
								OFFSET 0.0000 0.0000 0.0000
							}
						}
						JOINT mixamorig:RightEye
						{
							OFFSET	-3.0676	6.4095	9.2835
							CHANNELS 3 Zrotation Yrotation Xrotation
							End Site
							{
								OFFSET 0.0000 0.0000 0.0000
							}
						}
					}
				}
				JOINT mixamorig:LeftShoulder
				{
					OFFSET	4.5705	10.9460	-2.6280
					CHANNELS 3 Zrotation Yrotation Xrotation
					JOINT mixamorig:LeftArm
					{
						OFFSET	10.5893	-0.5824	-2.2321
						CHANNELS 3 Zrotation Yrotation Xrotation
						JOINT mixamorig:LeftForeArm
						{
							OFFSET	27.7308	-0.8050	-2.3459
							CHANNELS 3 Zrotation Yrotation Xrotation
							JOINT mixamorig:LeftHand
							{
								OFFSET	28.2754	-0.7243	1.5819
								CHANNELS 3 Zrotation Yrotation Xrotation
								JOINT mixamorig:LeftHandThumb1
								{
									OFFSET	1.9768	-1.4321	3.1303
									CHANNELS 3 Zrotation Yrotation Xrotation
									JOINT mixamorig:LeftHandThumb2
									{
										OFFSET	2.6262	-2.0520	2.5056
										CHANNELS 3 Zrotation Yrotation Xrotation
										JOINT mixamorig:LeftHandThumb3
										{
											OFFSET	2.6086	-1.6384	1.4960
											CHANNELS 3 Zrotation Yrotation Xrotation
											End Site
											{
												OFFSET 1.6082 -1.1610 1.5598
											}
										}
									}
								}
								JOINT mixamorig:LeftHandIndex1
								{
									OFFSET	8.7164	-1.5021	3.1818
									CHANNELS 3 Zrotation Yrotation Xrotation
									JOINT mixamorig:LeftHandIndex2
									{
										OFFSET	3.5376	-0.8731	0.4888
										CHANNELS 3 Zrotation Yrotation Xrotation
										JOINT mixamorig:LeftHandIndex3
										{
											OFFSET	2.6995	-0.9224	0.4174
											CHANNELS 3 Zrotation Yrotation Xrotation
											End Site
											{
												OFFSET 2.2837 -0.6697 0.2474
											}
										}
									}
								}
								JOINT mixamorig:LeftHandMiddle1
								{
									OFFSET	9.3748	-1.4680	0.9189
									CHANNELS 3 Zrotation Yrotation Xrotation
									JOINT mixamorig:LeftHandMiddle2
									{
										OFFSET	3.6134	-0.7746	0.1449
										CHANNELS 3 Zrotation Yrotation Xrotation
										JOINT mixamorig:LeftHandMiddle3
										{
											OFFSET	2.8303	-0.8314	0.0792
											CHANNELS 3 Zrotation Yrotation Xrotation
											End Site
											{
												OFFSET 2.7849 -0.5114 0.1171
											}
										}
									}
								}
								JOINT mixamorig:LeftHandRing1
								{
									OFFSET	9.0730	-1.7773	-0.9460
									CHANNELS 3 Zrotation Yrotation Xrotation
									JOINT mixamorig:LeftHandRing2
									{
										OFFSET	3.0963	-0.5513	-0.2393
										CHANNELS 3 Zrotation Yrotation Xrotation
										JOINT mixamorig:LeftHandRing3
										{
											OFFSET	2.8588	-0.6503	-0.1853
											CHANNELS 3 Zrotation Yrotation Xrotation
											End Site
											{
												OFFSET 2.5536 -0.6712 -0.1945
											}
										}
									}
								}
								JOINT mixamorig:LeftHandPinky1
								{
									OFFSET	8.1210	-2.3975	-2.8769
									CHANNELS 3 Zrotation Yrotation Xrotation
									JOINT mixamorig:LeftHandPinky2
									{
										OFFSET	3.4503	-0.6398	-0.8039
										CHANNELS 3 Zrotation Yrotation Xrotation
										JOINT mixamorig:LeftHandPinky3
										{
											OFFSET	2.0317	-0.3919	-0.4345
											CHANNELS 3 Zrotation Yrotation Xrotation
											End Site
											{
												OFFSET 1.9042 -0.2980 -0.4342
											}
										}
									}
								}
							}
						}
					}
				}
				JOINT mixamorig:RightShoulder
				{
					OFFSET	-4.5699	10.9462	-2.6281
					CHANNELS 3 Zrotation Yrotation Xrotation
					JOINT mixamorig:RightArm
					{
						OFFSET	-10.5898	-0.5826	-2.2321
						CHANNELS 3 Zrotation Yrotation Xrotation
						JOINT mixamorig:RightForeArm
						{
							OFFSET	-27.7309	-0.8051	-2.3459
							CHANNELS 3 Zrotation Yrotation Xrotation
							JOINT mixamorig:RightHand
							{
								OFFSET	-28.2754	-0.7244	1.5819
								CHANNELS 3 Zrotation Yrotation Xrotation
								JOINT mixamorig:RightHandPinky1
								{
									OFFSET	-8.1207	-2.3941	-2.8773
									CHANNELS 3 Zrotation Yrotation Xrotation
									JOINT mixamorig:RightHandPinky2
									{
										OFFSET	-3.4503	-0.6397	-0.8040
										CHANNELS 3 Zrotation Yrotation Xrotation
										JOINT mixamorig:RightHandPinky3
										{
											OFFSET	-2.0316	-0.3918	-0.4345
											CHANNELS 3 Zrotation Yrotation Xrotation
											End Site
											{
												OFFSET -1.9042 -0.2979 -0.4343
											}
										}
									}
								}
								JOINT mixamorig:RightHandRing1
								{
									OFFSET	-9.0726	-1.7739	-0.9464
									CHANNELS 3 Zrotation Yrotation Xrotation
									JOINT mixamorig:RightHandRing2
									{
										OFFSET	-3.0963	-0.5512	-0.2393
										CHANNELS 3 Zrotation Yrotation Xrotation
										JOINT mixamorig:RightHandRing3
										{
											OFFSET	-2.8588	-0.6502	-0.1853
											CHANNELS 3 Zrotation Yrotation Xrotation
											End Site
											{
												OFFSET -2.5536 -0.6711 -0.1945
											}
										}
									}
								}
								JOINT mixamorig:RightHandMiddle1
								{
									OFFSET	-9.3744	-1.4646	0.9184
									CHANNELS 3 Zrotation Yrotation Xrotation
									JOINT mixamorig:RightHandMiddle2
									{
										OFFSET	-3.6134	-0.7745	0.1449
										CHANNELS 3 Zrotation Yrotation Xrotation
										JOINT mixamorig:RightHandMiddle3
										{
											OFFSET	-2.8303	-0.8313	0.0792
											CHANNELS 3 Zrotation Yrotation Xrotation
											End Site
											{
												OFFSET -2.7849 -0.5114 0.1170
											}
										}
									}
								}
								JOINT mixamorig:RightHandIndex1
								{
									OFFSET	-8.7160	-1.4988	3.1813
									CHANNELS 3 Zrotation Yrotation Xrotation
									JOINT mixamorig:RightHandIndex2
									{
										OFFSET	-3.5377	-0.8729	0.4888
										CHANNELS 3 Zrotation Yrotation Xrotation
										JOINT mixamorig:RightHandIndex3
										{
											OFFSET	-2.6995	-0.9222	0.4173
											CHANNELS 3 Zrotation Yrotation Xrotation
											End Site
											{
												OFFSET -2.2838 -0.6696 0.2474
											}
										}
									}
								}
								JOINT mixamorig:RightHandThumb1
								{
									OFFSET	-1.9765	-1.4291	3.1299
									CHANNELS 3 Zrotation Yrotation Xrotation
									JOINT mixamorig:RightHandThumb2
									{
										OFFSET	-2.6263	-2.0519	2.5056
										CHANNELS 3 Zrotation Yrotation Xrotation
										JOINT mixamorig:RightHandThumb3
										{
											OFFSET	-2.6086	-1.6383	1.4960
											CHANNELS 3 Zrotation Yrotation Xrotation
											End Site
											{
												OFFSET -1.6083 -1.1610 1.5598
											}
										}
									}
								}
							}
						}
					}
				}
			}
		}
	}
	JOINT mixamorig:LeftUpLeg
	{
		OFFSET	8.2078	-6.7517	-1.5996
		CHANNELS 3 Zrotation Yrotation Xrotation
		JOINT mixamorig:LeftLeg
		{
			OFFSET	0.0000	-44.3132	-2.2711
			CHANNELS 3 Zrotation Yrotation Xrotation
			JOINT mixamorig:LeftFoot
			{
				OFFSET	0.0000	-44.1978	-5.4110
				CHANNELS 3 Zrotation Yrotation Xrotation
				JOINT mixamorig:LeftToeBase
				{
					OFFSET	0.0000	-8.7286	10.7105
					CHANNELS 3 Zrotation Yrotation Xrotation
					End Site
					{
						OFFSET 0.0000 -0.0007 9.2781
					}
				}
			}
		}
	}
	JOINT mixamorig:RightUpLeg
	{
		OFFSET	-8.2078	-6.7517	-1.5996
		CHANNELS 3 Zrotation Yrotation Xrotation
		JOINT mixamorig:RightLeg
		{
			OFFSET	-0.0000	-44.3133	-2.2711
			CHANNELS 3 Zrotation Yrotation Xrotation
			JOINT mixamorig:RightFoot
			{
				OFFSET	-0.0000	-44.1978	-5.4110
				CHANNELS 3 Zrotation Yrotation Xrotation
				JOINT mixamorig:RightToeBase
				{
					OFFSET	-0.0000	-8.7286	10.7105
					CHANNELS 3 Zrotation Yrotation Xrotation
					End Site
					{
						OFFSET 0.0000 -0.0007 9.2781
					}
				}
			}
		}
	}
}
MOTION
Frames: 4
Frame Time: 0.0333333
10.3435 96.6908 7.8877 -4.6361 8.2927 1.6747 -2.9785 2.9897 1.4587 -5.3312 5.7324 3.1736 -5.3408 5.6959 3.2142 -7.1679 -3.4714 -2.2021 10.5036 -28.3156 1.7559 0.0000 0.0000 0.0000 0.0000 0.0000 0.0000 0.0000 0.0000 0.0000 -4.7858 -3.2012 1.4100 -39.0260 -31.0393 4.3888 174.0629 -69.8486 -175.9834 25.7480 2.5707 7.5114 -3.6524 4.6655 -1.2171 -4.2029 -3.3676 0.9669 3.6674 24.4222 12.3327 -54.1731 0.0144 5.6720 -67.9002 1.2271 9.0277 -50.2342 -2.6415 6.4630 -64.3452 -5.1305 5.5903 -60.6530 -2.5094 2.7118 -44.8860 -0.5872 1.6059 -72.3552 -9.6820 5.6150 -56.0117 -3.0619 -3.0050 -40.0396 -2.9330 -2.3840 -70.9485 -14.1805 4.8072 -63.3687 -9.2090 -8.2956 -43.6372 -4.6001 -8.5591 -13.0419 1.2058 0.1250 8.4047 53.7830 -37.7831 -7.4465 80.6637 -8.9898 -34.7109 3.9947 40.1670 53.7963 14.8431 3.1634 29.9331 0.9560 -6.4486 32.3312 2.9537 -6.6917 46.3874 10.9141 3.0586 28.0998 0.8134 -1.9041 30.9097 2.2504 -2.0275 43.0262 7.8150 2.9981 43.2433 2.3168 1.7065 45.0580 0.5462 1.6055 47.2459 6.0337 3.4402 32.4368 0.4574 4.4860 37.9928 3.0797 4.7248 2.9813 -11.8309 -5.5787 4.7829 2.6069 1.7772 -5.1336 -12.3640 5.3546 6.9104 0.8455 -35.8086 1.5140 -13.7339 38.6665 -9.1987 -16.6730 -6.7770 0.0000 0.0000 -1.1400 -1.9046 -15.2102 -3.3171 -10.2510 -3.5336 43.4695 15.4247 -9.1513 0.4739 1.0285 0.2906 -16.4120 
10.9309 95.3120 8.1725 -5.1084 6.5931 1.5902 -3.4488 3.2312 2.2997 -5.8824 6.1679 4.5341 -5.8736 6.1278 4.5919 -7.0572 -3.5846 -1.7771 13.5398 -28.4440 -2.7729 0.0000 0.0000 0.0000 0.0000 0.0000 0.0000 0.0000 0.0000 0.0000 -5.7963 -5.0983 1.9346 -41.7877 -17.4136 3.6649 175.1041 -62.9223 -177.1172 28.5421 -0.9369 2.5415 -3.9747 4.6002 -1.2362 -4.2128 -3.3309 0.9788 3.5785 25.9705 13.3044 -57.4304 1.1205 6.2514 -73.8056 1.7733 9.6448 -53.5864 -2.4453 6.9174 -67.4046 -4.1904 6.0374 -62.6643 -2.5055 2.8286 -47.4181 -0.6425 1.7158 -75.5898 -9.4070 5.8946 -58.7530 -3.3021 -3.0525 -41.3439 -3.0293 -2.4265 -73.0121 -14.0338 4.9883 -64.6983 -9.4153 -8.3672 -45.2492 -4.8590 -8.7994 -8.7613 3.2858 0.4332 18.1685 44.9370 -31.5661 -172.6850 74.8854 -174.5395 -32.5470 5.4532 44.0252 53.5994 14.3740 3.2257 22.6624 0.1612 -4.9400 31.4877 2.8499 -6.5399 45.7705 10.8113 3.0141 21.2706 0.3819 -1.4794 29.4304 2.1535 -1.9596 42.8805 8.9461 2.7393 37.8454 2.2195 1.4135 44.7182 0.5388 1.5912 47.3800 7.8548 2.9957 29.5966 0.4724 4.0924 37.2676 3.0974 4.6195 2.5270 -11.7696 -5.7154 4.7829 2.6069 1.7772 -5.1329 -12.3929 5.3722 7.5612 0.1224 -37.7929 0.1497 -13.7016 44.2696 -8.1597 -14.1397 -10.0747 0.0000 -0.0000 -1.1885 -3.3397 -14.6329 -4.9006 -10.9645 -2.3277 47.6913 14.3484 -2.7323 1.2252 0.6731 0.2046 -17.3355 
11.6687 93.7994 8.3843 -5.6385 2.8045 1.5358 -3.9156 3.5987 3.0479 -6.4561 6.8687 5.6939 -6.4234 6.8261 5.7750 -6.4789 -3.8012 -1.6129 16.5442 -28.1322 -7.5092 0.0000 0.0000 0.0000 0.0000 0.0000 0.0000 0.0000 0.0000 0.0000 -6.7199 -6.8116 2.4482 -45.9440 -2.5851 0.6652 174.8570 -64.9799 -176.8424 28.2260 -4.1993 -0.6550 -4.0706 4.5647 -1.2586 -4.2618 -3.1502 1.0372 3.5464 26.9161 13.9131 -60.1702 1.5188 6.5930 -77.7717 2.1746 10.0266 -57.0724 -2.2133 7.3771 -69.6001 -3.4954 6.3554 -65.6149 -2.4924 2.9995 -49.6426 -0.6870 1.8143 -79.9238 -9.0866 6.2370 -61.5342 -3.5479 -3.0890 -42.3042 -3.1008 -2.4565 -75.2309 -13.8637 5.1784 -66.7053 -9.7295 -8.4660 -46.0405 -4.9886 -8.9147 -5.2102 3.0928 0.6282 25.5181 40.6967 -27.5269 -175.3980 59.9536 -177.4517 -30.5144 6.3720 44.3048 53.4965 13.7563 3.3226 18.0533 -0.2402 -3.9384 30.9777 2.7882 -6.4474 45.4878 10.1645 3.0980 15.2590 0.0463 -1.0655 28.3072 2.0811 -1.9064 42.9126 9.6333 2.5944 32.6699 2.1008 1.1423 44.2212 0.5278 1.5702 47.5697 8.7755 2.7832 26.0882 0.4639 3.6059 36.3408 3.1182 4.4846 2.9018 -11.7888 -5.6362 4.7829 2.6069 1.7772 -5.1377 -12.2034 5.2561 8.1816 0.4728 -39.2752 -1.1822 -13.5590 49.9239 -7.5102 -10.6474 -13.5852 -0.0000 -0.0000 -1.0891 -5.2107 -14.7775 -6.6269 -8.7758 0.5976 50.9220 13.5888 -1.0702 0.8045 0.8636 0.3016 -19.7995 
12.5162 92.2661 8.4708 -6.2029 -2.5190 1.4489 -4.3406 3.8010 3.6307 -6.9731 7.2622 6.5097 -6.9131 7.2192 6.6150 -5.7160 -3.9118 -1.6825 18.1124 -27.0079 -11.0607 0.0000 0.0000 0.0000 0.0000 0.0000 0.0000 0.0000 0.0000 0.0000 -6.5003 -7.1949 2.5073 -52.5149 8.9557 -5.5811 170.8316 -78.6621 -172.6369 22.6325 -8.7262 -3.0902 -3.8632 4.5172 -1.3392 -4.2739 -3.1051 1.0518 3.5345 27.5702 14.3417 -62.6945 1.5589 6.8149 -79.5454 2.3625 10.1883 -59.4089 -2.0422 7.6771 -71.9592 -3.1461 6.6034 -68.8469 -2.4680 3.1857 -50.8847 -0.7101 1.8700 -83.9649 -8.7816 6.5312 -63.3603 -3.7101 -3.1064 -42.7554 -3.1346 -2.4701 -77.3289 -13.7183 5.3490 -68.6248 -10.0328 -8.5501 -46.2339 -5.0206 -8.9426 -3.2251 2.0801 0.6340 29.6752 40.8317 -24.7078 -175.7780 54.9072 -177.9017 -30.6553 7.4124 42.7675 53.4795 13.1276 3.4295 16.1486 -0.3822 -3.5161 30.7397 2.7597 -6.4040 45.5089 8.9975 3.3029 11.0235 -0.1631 -0.7539 27.6098 2.0367 -1.8726 43.0806 9.6626 2.6052 28.7520 1.9949 0.9448 43.7683 0.5177 1.5511 47.8062 8.8184 2.7956 22.4405 0.4236 3.1016 35.3149 3.1386 4.3350 4.6221 -11.8051 -5.3510 4.7829 2.6069 1.7772 -5.1479 -11.8565 5.0440 8.7287 1.5907 -40.0950 -2.4378 -13.3460 55.2074 -7.4055 -6.5588 -17.0389 -0.0000 0.0000 -0.9109 -7.1257 -15.1426 -8.3942 -6.3138 3.2192 53.4110 12.7109 -0.9037 -0.2723 1.4833 0.6026 -23.0767 
